<svg width="48" height="48" viewBox="0 0 48 48" fill="none" xmlns="http://www.w3.org/2000/svg">
<rect width="48" height="48" rx="10" fill="#005864"/>
<path fill-rule="evenodd" clip-rule="evenodd" d="M20.4194 23.931C20.4417 23.9509 20.4629 23.9696 20.484 23.992C21.8256 25.3671 22.5653 27.1886 22.5653 29.1219V34.0754L25.3454 32.561C25.5642 32.4416 25.6998 32.2079 25.6998 31.9505V29.107C25.6998 27.1811 26.4321 25.3658 27.7612 23.9982L33.7752 17.6013C34.1643 17.1872 34.3782 16.6439 34.3782 16.0707V14.907C34.3782 14.3301 33.9231 13.8613 33.3661 13.8613H14.8766C14.3183 13.8613 13.8633 14.3301 13.8633 14.907V16.0707C13.8633 16.6439 14.0771 17.1872 14.4663 17.6L20.4194 23.931ZM22.1282 36.2461C21.877 36.2461 21.6283 36.179 21.402 36.0447C20.9644 35.7836 20.7021 35.3224 20.7021 34.8101V29.1256C20.7021 27.7144 20.1761 26.3853 19.2175 25.367C19.1889 25.3434 19.1603 25.3173 19.1355 25.2899L13.1103 18.8831C12.3941 18.1221 12 17.1238 12 16.0744V14.9106C12 13.3055 13.2918 12 14.8783 12H33.3678C34.9531 12 36.2449 13.3055 36.2449 14.9106V16.0744C36.2449 17.1225 35.8508 18.1197 35.1371 18.8818L29.1107 25.2899C28.1123 26.3194 27.5665 27.6734 27.5665 29.1107V31.9542C27.5665 32.8941 27.0579 33.7545 26.2398 34.2021L22.807 36.0721C22.5932 36.1877 22.3607 36.2461 22.1282 36.2461Z" fill="#FBFBFB"/>
</svg>
